<svg width="16" height="16" viewBox="0 0 16 16" fill="none" xmlns="http://www.w3.org/2000/svg">
<path d="M15.2114 6.21912C15.3106 6.61116 15.3766 7.01087 15.4086 7.414L14.6086 8.79467L13.2657 6.65362V4.19527L14.6571 4.71839C14.8114 5.02473 14.9432 5.34192 15.0514 5.66742L15.5886 5.47018C15.0572 3.87715 14.0384 2.4917 12.6765 1.50998C11.3146 0.528255 9.67858 0 8 0C6.32142 0 4.68537 0.528255 3.32347 1.50998C1.96156 2.4917 0.942804 3.87715 0.411429 5.47018L0.948572 5.66742C1.05679 5.34192 1.18857 5.02473 1.34286 4.71839L2.73429 4.19527V6.65362L1.39143 8.79467L0.591429 7.414C0.623233 7.01084 0.689184 6.61112 0.788572 6.21912L0.245714 6.0276C-0.0538643 7.20888 -0.0798662 8.443 0.169692 9.63586C0.41925 10.8287 0.937777 11.9488 1.68573 12.9107C2.43369 13.8726 3.39131 14.6509 4.48559 15.1863C5.57987 15.7217 6.78189 16 8 16C9.21811 16 10.4201 15.7217 11.5144 15.1863C12.6087 14.6509 13.5663 13.8726 14.3143 12.9107C15.0622 11.9488 15.5808 10.8287 15.8303 9.63586C16.0799 8.443 16.0539 7.20888 15.7543 6.0276L15.2114 6.21912ZM14.2114 3.93228L12.8229 3.41203L10.8571 1.81982L10.3514 0.962253C11.9344 1.49603 13.2933 2.54461 14.2114 3.94086V3.93228ZM9.45143 10.4726H6.54857L5.65143 7.71128L8 5.99616L10.3486 7.71128L9.45143 10.4726ZM9.52857 11.0444L10.6571 12.7395L9.14286 14.4203H6.85714L5.34286 12.7423L6.47143 11.0472L9.52857 11.0444ZM5.29143 7.26821L3.30571 6.53642V4.04949L5.2 2.52016L7.71429 3.20621V5.49305L5.29143 7.26821ZM8.28572 5.50734V3.22051L10.8 2.53445L12.6943 4.06378V6.55071L10.6943 7.2825L8.28572 5.50734ZM6.45714 0.750721C7.47425 0.533437 8.52575 0.533437 9.54286 0.750721L10.32 2.05994L8 2.68882L5.68 2.05994L6.45714 0.750721ZM1.78857 3.94086C2.71081 2.54316 4.075 1.49535 5.66286 0.965112L5.15714 1.82268L3.17714 3.42346L1.78857 3.94086ZM2.22286 12.7052C1.25415 11.5217 0.677051 10.0663 0.571429 8.54026L1.14286 9.48358L2.31143 11.8533L2.22286 12.7052ZM1.71429 9.36353L3.14286 7.07669L5.08286 7.79132L6.02286 10.6785L5.4 11.6132L4.87429 12.4022L2.8 11.576L1.71429 9.36353ZM5.92 15.175C4.71905 14.8238 3.6262 14.1749 2.74286 13.2883L2.85714 12.2078L4.82857 13.0082L6.47429 14.8205L5.92 15.175ZM8 15.4608C7.5603 15.4597 7.12151 15.4205 6.68857 15.3436L7.24 14.9834H8.76L9.31143 15.3436C8.87849 15.4205 8.43971 15.4597 8 15.4608ZM10.08 15.175L9.54 14.8262L11.1857 13.0139L13.1571 12.2135L13.2571 13.2912C12.374 14.1774 11.281 14.8254 10.08 15.175ZM13.2 11.576L11.1429 12.4165L10.6171 11.6275L9.99429 10.6927L10.9343 7.80562L12.8571 7.08526L14.2857 9.3721L13.2 11.576ZM13.7 11.8619L14.8571 9.48358L15.4286 8.54026C15.3262 10.065 14.7532 11.5203 13.7886 12.7052L13.7 11.8619Z" fill="#F5F5F6" fill-opacity="0.87"/>
<path d="M15.2114 6.21912C15.3106 6.61116 15.3766 7.01087 15.4086 7.414L14.6086 8.79467L13.2657 6.65362V4.19527L14.6571 4.71839C14.8114 5.02473 14.9432 5.34192 15.0514 5.66742L15.5886 5.47018C15.0572 3.87715 14.0384 2.4917 12.6765 1.50998C11.3146 0.528255 9.67858 0 8 0C6.32142 0 4.68537 0.528255 3.32347 1.50998C1.96156 2.4917 0.942804 3.87715 0.411429 5.47018L0.948572 5.66742C1.05679 5.34192 1.18857 5.02473 1.34286 4.71839L2.73429 4.19527V6.65362L1.39143 8.79467L0.591429 7.414C0.623233 7.01084 0.689184 6.61112 0.788572 6.21912L0.245714 6.0276C-0.0538643 7.20888 -0.0798662 8.443 0.169692 9.63586C0.41925 10.8287 0.937777 11.9488 1.68573 12.9107C2.43369 13.8726 3.39131 14.6509 4.48559 15.1863C5.57987 15.7217 6.78189 16 8 16C9.21811 16 10.4201 15.7217 11.5144 15.1863C12.6087 14.6509 13.5663 13.8726 14.3143 12.9107C15.0622 11.9488 15.5808 10.8287 15.8303 9.63586C16.0799 8.443 16.0539 7.20888 15.7543 6.0276L15.2114 6.21912ZM14.2114 3.93228L12.8229 3.41203L10.8571 1.81982L10.3514 0.962253C11.9344 1.49603 13.2933 2.54461 14.2114 3.94086V3.93228ZM9.45143 10.4726H6.54857L5.65143 7.71128L8 5.99616L10.3486 7.71128L9.45143 10.4726ZM9.52857 11.0444L10.6571 12.7395L9.14286 14.4203H6.85714L5.34286 12.7423L6.47143 11.0472L9.52857 11.0444ZM5.29143 7.26821L3.30571 6.53642V4.04949L5.2 2.52016L7.71429 3.20621V5.49305L5.29143 7.26821ZM8.28572 5.50734V3.22051L10.8 2.53445L12.6943 4.06378V6.55071L10.6943 7.2825L8.28572 5.50734ZM6.45714 0.750721C7.47425 0.533437 8.52575 0.533437 9.54286 0.750721L10.32 2.05994L8 2.68882L5.68 2.05994L6.45714 0.750721ZM1.78857 3.94086C2.71081 2.54316 4.075 1.49535 5.66286 0.965112L5.15714 1.82268L3.17714 3.42346L1.78857 3.94086ZM2.22286 12.7052C1.25415 11.5217 0.677051 10.0663 0.571429 8.54026L1.14286 9.48358L2.31143 11.8533L2.22286 12.7052ZM1.71429 9.36353L3.14286 7.07669L5.08286 7.79132L6.02286 10.6785L5.4 11.6132L4.87429 12.4022L2.8 11.576L1.71429 9.36353ZM5.92 15.175C4.71905 14.8238 3.6262 14.1749 2.74286 13.2883L2.85714 12.2078L4.82857 13.0082L6.47429 14.8205L5.92 15.175ZM8 15.4608C7.5603 15.4597 7.12151 15.4205 6.68857 15.3436L7.24 14.9834H8.76L9.31143 15.3436C8.87849 15.4205 8.43971 15.4597 8 15.4608ZM10.08 15.175L9.54 14.8262L11.1857 13.0139L13.1571 12.2135L13.2571 13.2912C12.374 14.1774 11.281 14.8254 10.08 15.175ZM13.2 11.576L11.1429 12.4165L10.6171 11.6275L9.99429 10.6927L10.9343 7.80562L12.8571 7.08526L14.2857 9.3721L13.2 11.576ZM13.7 11.8619L14.8571 9.48358L15.4286 8.54026C15.3262 10.065 14.7532 11.5203 13.7886 12.7052L13.7 11.8619Z" fill="#F5F5F6" fill-opacity="0.87"/>
</svg>
