<svg width="25" height="24" viewBox="0 0 25 24" fill="none" xmlns="http://www.w3.org/2000/svg">
<g clip-path="url(#clip0_1848_7340)">
<path d="M24.125 9.045L23.315 9.33C23.465 9.915 23.57 10.515 23.615 11.115L22.415 13.185L20.405 9.975V7.77L19.535 8.64V9.825L17.675 10.5L15.74 12.435L14.675 15.705H12.47L11.6 16.575H14.795L16.49 19.11L14.21 21.63H10.79L8.78003 19.395L8.18003 19.995L10.205 22.23L9.38003 22.77C8.40503 22.485 7.49003 22.065 6.63503 21.54L6.05003 22.125C6.44003 22.365 6.83003 22.59 7.23503 22.785C8.87003 23.58 10.67 24 12.5 24C14.33 24 16.13 23.58 17.765 22.785C19.415 21.975 20.855 20.805 21.965 19.365C23.09 17.925 23.87 16.245 24.245 14.46C24.62 12.66 24.575 10.815 24.125 9.045ZM16.43 17.445L15.485 16.035L16.895 11.715L19.79 10.635L21.935 14.055L20.3 17.37L17.21 18.63L16.43 17.445ZM12.5 23.19C11.84 23.19 11.18 23.13 10.535 23.01L11.36 22.47H13.64L14.465 23.01C13.82 23.13 13.16 23.19 12.5 23.19ZM15.62 22.77L14.81 22.245L17.285 19.515L20.24 18.315L20.39 19.935C19.055 21.27 17.42 22.245 15.62 22.77ZM21.185 19.065L21.05 17.79L22.79 14.22L23.645 12.81C23.495 15.09 22.625 17.28 21.185 19.065ZM20.585 3.915C20.315 3.645 19.97 3.48 19.655 3.495C20.135 3.885 20.585 4.335 20.99 4.815C20.99 4.5 20.84 4.185 20.585 3.915ZM19.73 5.115L18.635 4.215H18.62L20.27 5.88C20.27 5.88 20.525 5.625 20.675 5.475L19.73 5.115ZM12.5 0C9.98003 0 7.53503 0.795 5.48003 2.265C3.44003 3.735 1.91003 5.82 1.11503 8.205L1.92503 8.505C2.09003 8.01 2.28503 7.53 2.51003 7.08L4.59503 6.3V9.975L2.58503 13.185L1.38503 11.115C1.43003 10.515 1.53503 9.915 1.68503 9.33L0.87503 9.045C0.42503 10.815 0.38003 12.66 0.75503 14.46C1.05503 15.87 1.61003 17.22 2.39003 18.435L2.97503 17.85C2.04503 16.335 1.49003 14.61 1.35503 12.81L2.21003 14.22L3.66503 17.16L4.29503 16.53L3.06503 14.04L5.21003 10.62L8.72378 12.0315L8.37503 12.45L8.75 12L9.05003 11.8718V11.775L8.97503 11.565L10.025 10.8L12.935 7.89V4.83L16.7 3.795L16.88 3.945L17.12 3.705L17.51 3.315L16.79 2.73L16.025 1.44C16.82 1.71 17.585 2.07 18.29 2.52H18.305L18.935 1.89C17.015 0.66 14.78 0 12.5 0ZM3.18503 5.91C4.56503 3.81 6.60503 2.25 8.99003 1.455L8.24003 2.73L5.27003 5.13L3.18503 5.91ZM11.9701 8.85491L9.5 11.25L5.46503 9.81V6.075L8.30003 3.78L12.065 4.815L11.9701 8.85491ZM12.5 4.035L9.02003 3.09L10.19 1.125C11.705 0.795 13.295 0.795 14.81 1.125L15.98 3.09L12.5 4.035ZM22.61 5.565L21.89 6.3L21.47 6.705L22.49 7.08C22.715 7.53 22.91 8.01 23.075 8.505L23.885 8.205C23.57 7.275 23.15 6.375 22.61 5.565ZM14.675 9.54L15.65 10.515L15.785 10.365L14.675 9.54Z" fill="white"/>
<path d="M24.125 9.045L23.315 9.33C23.465 9.915 23.57 10.515 23.615 11.115L22.415 13.185L20.405 9.975V7.77L19.535 8.64V9.825L17.675 10.5L15.74 12.435L14.675 15.705H12.47L11.6 16.575H14.795L16.49 19.11L14.21 21.63H10.79L8.78003 19.395L8.18003 19.995L10.205 22.23L9.38003 22.77C8.40503 22.485 7.49003 22.065 6.63503 21.54L6.05003 22.125C6.44003 22.365 6.83003 22.59 7.23503 22.785C8.87003 23.58 10.67 24 12.5 24C14.33 24 16.13 23.58 17.765 22.785C19.415 21.975 20.855 20.805 21.965 19.365C23.09 17.925 23.87 16.245 24.245 14.46C24.62 12.66 24.575 10.815 24.125 9.045ZM16.43 17.445L15.485 16.035L16.895 11.715L19.79 10.635L21.935 14.055L20.3 17.37L17.21 18.63L16.43 17.445ZM12.5 23.19C11.84 23.19 11.18 23.13 10.535 23.01L11.36 22.47H13.64L14.465 23.01C13.82 23.13 13.16 23.19 12.5 23.19ZM15.62 22.77L14.81 22.245L17.285 19.515L20.24 18.315L20.39 19.935C19.055 21.27 17.42 22.245 15.62 22.77ZM21.185 19.065L21.05 17.79L22.79 14.22L23.645 12.81C23.495 15.09 22.625 17.28 21.185 19.065ZM20.585 3.915C20.315 3.645 19.97 3.48 19.655 3.495C20.135 3.885 20.585 4.335 20.99 4.815C20.99 4.5 20.84 4.185 20.585 3.915ZM19.73 5.115L18.635 4.215H18.62L20.27 5.88C20.27 5.88 20.525 5.625 20.675 5.475L19.73 5.115ZM12.5 0C9.98003 0 7.53503 0.795 5.48003 2.265C3.44003 3.735 1.91003 5.82 1.11503 8.205L1.92503 8.505C2.09003 8.01 2.28503 7.53 2.51003 7.08L4.59503 6.3V9.975L2.58503 13.185L1.38503 11.115C1.43003 10.515 1.53503 9.915 1.68503 9.33L0.87503 9.045C0.42503 10.815 0.38003 12.66 0.75503 14.46C1.05503 15.87 1.61003 17.22 2.39003 18.435L2.97503 17.85C2.04503 16.335 1.49003 14.61 1.35503 12.81L2.21003 14.22L3.66503 17.16L4.29503 16.53L3.06503 14.04L5.21003 10.62L8.82503 12L8.37503 12.45L9.05003 11.775L8.97503 11.565L10.025 10.8L12.935 7.89V4.83L16.7 3.795L16.88 3.945L17.12 3.705L17.51 3.315L16.79 2.73L16.025 1.44C16.82 1.71 17.585 2.07 18.29 2.52H18.305L18.935 1.89C17.015 0.66 14.78 0 12.5 0ZM3.18503 5.91C4.56503 3.81 6.60503 2.25 8.99003 1.455L8.24003 2.73L5.27003 5.13L3.18503 5.91ZM12.4194 8.40566L9.5 11.25L5.46503 9.81V6.075L8.30003 3.78L12.065 4.815L12.4194 8.40566ZM12.5 4.035L9.02003 3.09L10.19 1.125C11.705 0.795 13.295 0.795 14.81 1.125L15.98 3.09L12.5 4.035ZM22.61 5.565L21.89 6.3L21.47 6.705L22.49 7.08C22.715 7.53 22.91 8.01 23.075 8.505L23.885 8.205C23.57 7.275 23.15 6.375 22.61 5.565ZM14.675 9.54L15.65 10.515L15.785 10.365L14.675 9.54Z" fill="white"/>
<path d="M15.7849 10.365L15.6499 10.515L14.6749 9.54004L15.7849 10.365Z" fill="white"/>
<path d="M18.335 2.53453C18.335 2.53453 18.305 2.54953 18.275 2.56453L18.305 2.51953C18.305 2.51953 18.335 2.51953 18.335 2.53453Z" fill="white"/>
<path d="M18.335 2.53453C18.335 2.53453 18.305 2.54953 18.275 2.56453L18.215 2.62453C18.215 2.62453 18.17 2.63953 18.14 2.66953L18.29 2.51953H18.305C18.305 2.51953 18.335 2.51953 18.335 2.53453Z" fill="white"/>
<path d="M19.0699 1.75488L18.9349 1.88988V1.87488L19.0699 1.75488Z" fill="white"/>
<path d="M9.05 11.7745L8.375 12.4495L9.05 11.7745ZM21.47 6.70453L20.405 7.76953L21.47 6.70453ZM18.305 2.51953L18.275 2.56453L18.305 2.51953Z" fill="white"/>
<path d="M9.05 11.7745L8.375 12.4495M21.47 6.70453L20.405 7.76953M18.305 2.51953L18.275 2.56453" stroke="white" stroke-width="0.42" stroke-linecap="round" stroke-linejoin="round"/>
<path d="M9.43997 16.1548L8.05997 14.7898L9.19997 14.9848L10.145 15.1498L10.88 15.2848L9.84497 14.2498M19.115 1.72484L18.215 2.62484L17.51 3.31484L17.12 3.70484L3.66497 17.1598L2.97497 17.8498L2.38997 18.4348L2.25497 18.5698C1.90997 18.8998 1.90997 19.4548 2.25497 19.7848L4.71497 22.2448C5.04497 22.5898 5.59997 22.5898 5.92997 22.2448L11.6 16.5748L12.47 15.7048L15.74 12.4348L17.675 10.4998L21.47 6.70484L21.89 6.29984L22.61 5.56484L22.745 5.42984C23.09 5.09984 23.09 4.54484 22.745 4.21484L20.285 1.75484C19.955 1.40984 19.4 1.40984 19.07 1.75484M7.38497 18.4348L6.48497 16.4098C6.48497 16.4098 6.49997 16.3198 6.54497 16.3498L8.67497 17.2948M15.65 10.5148L14.675 9.53984M20.675 5.47484C20.525 5.62484 20.27 5.87984 20.27 5.87984L18.62 4.22984L19.085 3.76484C19.265 3.58484 19.46 3.50984 19.655 3.49484C19.97 3.47984 20.315 3.64484 20.585 3.91484C20.84 4.18484 20.99 4.49984 20.99 4.81484" stroke="white" stroke-width="0.8" stroke-linecap="round" stroke-linejoin="round"/>
<path d="M15.5 7.35008L17.15 9.01508L17.735 8.43008M14.675 9.54008L13.985 8.86508M16.22 9.93008L15.65 10.5151M18.47 6.03008L17.825 6.67508M17.825 6.67508L18.65 7.50008L19.355 6.81008M17.825 6.67508L17 5.85008L17.69 5.14508M13.88 10.6201L13.235 11.2651M13.235 11.2651L14.075 12.0901L14.765 11.3851M13.235 11.2651L12.41 10.4401L13.115 9.73508M12.92 12.7801V12.9151C12.92 13.1251 12.815 13.3351 12.635 13.5301C12.17 13.9801 11.435 13.9801 10.97 13.5301C10.52 13.0651 10.52 12.3301 10.97 11.8651C11.135 11.7001 11.345 11.5951 11.585 11.5501M5.12001 20.4151C4.86501 20.4001 4.61001 20.2801 4.41501 20.0851C3.96501 19.6201 3.96501 18.8851 4.41501 18.4351C4.58001 18.2701 4.79001 18.1501 5.03001 18.1051M6.36501 19.3351V19.4701C6.36501 19.6801 6.26001 19.9051 6.08001 20.0851C5.82501 20.3401 5.48001 20.4451 5.13501 20.4301M8.19501 17.1451L7.28001 18.0751M7.49001 18.6751L7.38501 18.4351M8.79501 17.3551L8.67501 17.2951M9.72501 16.4401L9.44001 16.1551M9.84501 14.2501L9.23001 13.6201M20.585 3.91508C20.315 3.64508 19.97 3.48008 19.655 3.49508C19.46 3.51008 19.265 3.58508 19.085 3.76508L18.62 4.23008L20.27 5.88008C20.27 5.88008 20.525 5.62508 20.675 5.47508C20.705 5.44508 20.735 5.41508 20.75 5.40008C20.915 5.23508 20.99 5.04008 20.99 4.83008C20.99 4.50008 20.84 4.18508 20.585 3.91508Z" stroke="white" stroke-width="0.8" stroke-linecap="round" stroke-linejoin="round"/>
</g>
<defs>
<clipPath id="clip0_1848_7340">
<rect width="24" height="24" fill="white" transform="translate(0.5)"/>
</clipPath>
</defs>
</svg>
