<svg width="16" height="16" viewBox="0 0 16 16" fill="none" xmlns="http://www.w3.org/2000/svg">
<path d="M3.46652 11.7335H3.9545L2.93321 10.5442L1.91192 11.7335H2.3999C2.47056 11.7337 2.53826 11.7619 2.58822 11.8118C2.63818 11.8618 2.66635 11.9295 2.66656 12.0002V13.8668C2.66719 14.0787 2.75168 14.2818 2.90156 14.4317C3.05145 14.5816 3.25455 14.6661 3.46652 14.6667H6.13308C6.2038 14.6667 6.27163 14.6948 6.32163 14.7448C6.37164 14.7948 6.39974 14.8627 6.39974 14.9334C6.39974 15.0041 6.37164 15.0719 6.32163 15.1219C6.27163 15.1719 6.2038 15.2 6.13308 15.2H3.46652C3.11296 15.1999 2.77392 15.0594 2.52391 14.8094C2.2739 14.5594 2.13339 14.2203 2.13325 13.8668V12.2668H1.33328C1.28231 12.2668 1.23241 12.2522 1.18943 12.2248C1.14645 12.1974 1.11218 12.1583 1.09062 12.1122C1.06981 12.0656 1.06252 12.0142 1.0696 11.9637C1.07667 11.9133 1.09782 11.8658 1.13062 11.8268L2.73055 9.96025C2.7565 9.93247 2.78788 9.91033 2.82274 9.89519C2.8576 9.88005 2.8952 9.87223 2.93321 9.87223C2.97122 9.87223 3.00882 9.88005 3.04369 9.89519C3.07855 9.91033 3.10993 9.93247 3.13587 9.96025L4.73581 11.8268C4.7686 11.8658 4.78975 11.9133 4.79683 11.9637C4.8039 12.0142 4.79662 12.0656 4.7758 12.1122C4.75425 12.1583 4.71997 12.1974 4.67699 12.2248C4.63401 12.2522 4.58411 12.2668 4.53315 12.2668H3.73318V13.6001H6.13308C6.2038 13.6001 6.27163 13.6282 6.32163 13.6782C6.37164 13.7282 6.39974 13.796 6.39974 13.8668C6.39974 13.9375 6.37164 14.0053 6.32163 14.0553C6.27163 14.1053 6.2038 14.1334 6.13308 14.1334H3.46652C3.39587 14.1332 3.32816 14.105 3.2782 14.0551C3.22824 14.0051 3.20008 13.9374 3.19987 13.8668V12.0002C3.20008 11.9295 3.22824 11.8618 3.2782 11.8118C3.32816 11.7619 3.39587 11.7337 3.46652 11.7335ZM12.7995 4.00049V2.1339C12.7993 2.06325 12.7711 1.99555 12.7211 1.94558C12.6712 1.89562 12.6035 1.86746 12.5328 1.86725H9.86626C9.79554 1.86725 9.72771 1.89534 9.67771 1.94535C9.6277 1.99536 9.5996 2.06318 9.5996 2.1339C9.5996 2.20463 9.6277 2.27245 9.67771 2.32246C9.72771 2.37247 9.79554 2.40056 9.86626 2.40056H12.2662V3.73384H11.4662C11.4152 3.73388 11.3653 3.74844 11.3223 3.77584C11.2794 3.80323 11.2451 3.84231 11.2235 3.8885C11.2027 3.93501 11.1954 3.98645 11.2025 4.03691C11.2096 4.08737 11.2307 4.13482 11.2635 4.17382L12.8635 6.04041C12.8885 6.06968 12.9196 6.09319 12.9546 6.1093C12.9896 6.12542 13.0276 6.13376 13.0661 6.13376C13.1046 6.13376 13.1427 6.12542 13.1777 6.1093C13.2127 6.09319 13.2438 6.06968 13.2688 6.04041L14.8687 4.17382C14.9015 4.13482 14.9227 4.08737 14.9297 4.03691C14.9368 3.98645 14.9295 3.93501 14.9087 3.8885C14.8872 3.84231 14.8529 3.80323 14.8099 3.77584C14.7669 3.74844 14.717 3.73388 14.6661 3.73384H13.8661V2.1339C13.866 1.78034 13.7254 1.4413 13.4754 1.19129C13.2254 0.941283 12.8864 0.800767 12.5328 0.800626H9.86626C9.79554 0.800626 9.72771 0.82872 9.67771 0.878728C9.6277 0.928735 9.5996 0.99656 9.5996 1.06728C9.5996 1.138 9.6277 1.20583 9.67771 1.25584C9.72771 1.30584 9.79554 1.33394 9.86626 1.33394H12.5328C12.7448 1.33457 12.9479 1.41906 13.0978 1.56894C13.2477 1.71883 13.3322 1.92193 13.3328 2.1339V4.00049C13.333 4.07115 13.3612 4.13885 13.4111 4.18882C13.4611 4.23878 13.5288 4.26694 13.5994 4.26715H14.0874L13.0661 5.45643L12.0448 4.26715H12.5328C12.6035 4.26694 12.6712 4.23878 12.7211 4.18882C12.7711 4.13885 12.7993 4.07115 12.7995 4.00049ZM8.26633 3.46718H6.93305V7.73367C6.93241 7.94564 6.84793 8.14875 6.69804 8.29864C6.54816 8.44852 6.34505 8.53301 6.13308 8.53364H2.3999C2.18793 8.53301 1.98482 8.44852 1.83494 8.29864C1.68505 8.14875 1.60057 7.94564 1.59993 7.73367V3.46718H0.266656C0.195999 3.46697 0.128297 3.43881 0.0783348 3.38885C0.0283728 3.33889 0.000211022 3.27118 0 3.20053V2.40056C0 1.81392 0.445315 0.816626 1.24795 0.547303L2.84788 0.0139919C2.90324 -0.00466396 2.96319 -0.00466396 3.01854 0.0139919C3.42242 0.149818 3.84162 0.234911 4.26649 0.267315C4.69136 0.234911 5.11056 0.149818 5.51444 0.0139919C5.5698 -0.00466396 5.62974 -0.00466396 5.6851 0.0139919L7.28503 0.547303C8.08767 0.816626 8.53298 1.81392 8.53298 2.40056V3.20053C8.53277 3.27118 8.50461 3.33889 8.45465 3.38885C8.40469 3.43881 8.33698 3.46697 8.26633 3.46718ZM1.5946 2.93387C1.56527 1.91258 1.36261 1.3766 1.23728 1.13928C1.03472 1.28512 0.866682 1.47368 0.745035 1.69163C0.623389 1.90958 0.551111 2.1516 0.533311 2.40056V2.93387H1.5946ZM3.41586 0.677965C3.61231 0.988607 3.91441 1.21779 4.26649 1.32327C4.61858 1.21779 4.92067 0.988607 5.11712 0.677965C4.83897 0.750076 4.55369 0.791213 4.26649 0.800626C3.97929 0.791213 3.69402 0.750076 3.41586 0.677965ZM2.02658 1.87792C2.29035 1.52793 2.62466 1.23723 3.00788 1.02462C2.91501 0.892385 2.83551 0.751253 2.77055 0.603301L1.7386 0.947287C1.87699 1.24275 1.9739 1.55592 2.02658 1.87792ZM6.39974 3.20053C6.39974 2.3099 5.75976 1.75525 5.15979 1.4326C4.92081 1.63813 4.63666 1.78432 4.33049 1.85925C4.28849 1.86992 4.24449 1.86992 4.20249 1.85925C3.89632 1.78432 3.61218 1.63813 3.37319 1.4326C2.77322 1.75525 2.13325 2.3099 2.13325 3.20053V7.73367C2.13346 7.80433 2.16162 7.87203 2.21158 7.92199C2.26154 7.97196 2.32924 8.00012 2.3999 8.00033H6.13308C6.20374 8.00012 6.27144 7.97196 6.3214 7.92199C6.37136 7.87203 6.39953 7.80433 6.39974 7.73367V3.20053ZM6.79439 0.947287L5.76243 0.603301C5.69747 0.751253 5.61797 0.892385 5.52511 1.02462C5.90832 1.23723 6.24263 1.52793 6.5064 1.87792C6.55908 1.55592 6.65599 1.24275 6.79439 0.947287ZM7.99967 2.40056C7.98187 2.1516 7.90959 1.90958 7.78795 1.69163C7.6663 1.47368 7.49826 1.28512 7.2957 1.13928C7.17037 1.3766 6.96771 1.91258 6.93838 2.93387H7.99967V2.40056ZM4.98913 3.0112C4.93828 2.96209 4.8705 2.9344 4.7998 2.93387H3.73318C3.66249 2.9344 3.5947 2.96209 3.54385 3.0112L3.2772 3.27786C3.22808 3.3287 3.20039 3.39649 3.19987 3.46718V3.73384C3.19987 3.80456 3.22796 3.87239 3.27797 3.92239C3.32798 3.9724 3.3958 4.00049 3.46652 4.00049C3.53725 4.00049 3.60507 3.9724 3.65508 3.92239C3.70509 3.87239 3.73318 3.80456 3.73318 3.73384V3.57651L3.84251 3.46718H4.69047L4.7998 3.57651V4.15782L4.69047 4.26715H3.99984C3.92911 4.26715 3.86129 4.29524 3.81128 4.34525C3.76127 4.39526 3.73318 4.46308 3.73318 4.53381C3.73318 4.60453 3.76127 4.67235 3.81128 4.72236C3.86129 4.77237 3.92911 4.80046 3.99984 4.80046H4.69047L4.7998 4.90979V5.4911L4.69047 5.60043H3.84251L3.73318 5.4911V5.33377C3.73318 5.26305 3.70509 5.19523 3.65508 5.14522C3.60507 5.09521 3.53725 5.06712 3.46652 5.06712C3.3958 5.06712 3.32798 5.09521 3.27797 5.14522C3.22796 5.19523 3.19987 5.26305 3.19987 5.33377V5.60043C3.20039 5.67112 3.22808 5.73891 3.2772 5.78975L3.54385 6.05641C3.5947 6.10553 3.66249 6.13321 3.73318 6.13374H4.7998C4.8705 6.13321 4.93828 6.10553 4.98913 6.05641L5.25578 5.78975C5.3049 5.73891 5.33259 5.67112 5.33311 5.60043V4.80046C5.33259 4.72977 5.3049 4.66198 5.25578 4.61114L5.17579 4.53381L5.25578 4.45648C5.3049 4.40563 5.33259 4.33784 5.33311 4.26715V3.46718C5.33259 3.39649 5.3049 3.3287 5.25578 3.27786L4.98913 3.0112ZM15.9993 9.86692V10.6669C15.9991 10.7375 15.971 10.8052 15.921 10.8552C15.871 10.9052 15.8033 10.9333 15.7327 10.9335H14.3994V15.2C14.3988 15.412 14.3143 15.6151 14.1644 15.765C14.0145 15.9149 13.8114 15.9994 13.5994 16H9.86626C9.65429 15.9994 9.45118 15.9149 9.3013 15.765C9.15141 15.6151 9.06693 15.412 9.06629 15.2V10.9335H7.73302C7.66236 10.9333 7.59466 10.9052 7.54469 10.8552C7.49473 10.8052 7.46657 10.7375 7.46636 10.6669V9.86692C7.46636 9.28028 7.91167 8.28298 8.71431 8.01366L10.3142 7.48035C10.3696 7.4617 10.4295 7.4617 10.4849 7.48035C10.8888 7.61618 11.308 7.70127 11.7329 7.73367C12.1577 7.70127 12.5769 7.61618 12.9808 7.48035C13.0362 7.4617 13.0961 7.4617 13.1515 7.48035L14.7514 8.01366C15.554 8.28298 15.9993 9.28028 15.9993 9.86692ZM9.06096 10.4002C9.03163 9.37894 8.82897 8.84296 8.70364 8.60564C8.50108 8.75148 8.33304 8.94004 8.21139 9.15799C8.08975 9.37594 8.01747 9.61796 7.99967 9.86692V10.4002H9.06096ZM10.8822 8.14432C11.0787 8.45497 11.3808 8.68414 11.7329 8.78963C12.0849 8.68414 12.387 8.45497 12.5835 8.14432C12.3053 8.21644 12.02 8.25757 11.7329 8.26698C11.4457 8.25757 11.1604 8.21644 10.8822 8.14432ZM9.49294 9.34427C9.75671 8.99429 10.091 8.70359 10.4742 8.49098C10.3814 8.35874 10.3019 8.21761 10.2369 8.06966L9.20495 8.41365C9.34335 8.70911 9.44026 9.02228 9.49294 9.34427ZM13.8661 10.6669C13.8661 9.77626 13.2261 9.22161 12.6261 8.89896C12.3872 9.10449 12.103 9.25068 11.7968 9.32561C11.7548 9.33628 11.7109 9.33628 11.6689 9.32561C11.3627 9.25068 11.0785 9.10449 10.8396 8.89896C10.2396 9.22161 9.5996 9.77626 9.5996 10.6669V15.2C9.59982 15.2707 9.62798 15.3384 9.67794 15.3884C9.7279 15.4383 9.7956 15.4665 9.86626 15.4667H13.5994C13.6701 15.4665 13.7378 15.4383 13.7878 15.3884C13.8377 15.3384 13.8659 15.2707 13.8661 15.2V10.6669ZM14.2607 8.41365L13.2288 8.06966C13.1638 8.21761 13.0843 8.35874 12.9915 8.49098C13.3747 8.70359 13.709 8.99429 13.9728 9.34427C14.0254 9.02228 14.1223 8.70911 14.2607 8.41365ZM15.466 9.86692C15.4482 9.61796 15.376 9.37594 15.2543 9.15799C15.1327 8.94004 14.9646 8.75148 14.7621 8.60564C14.6367 8.84296 14.4341 9.37894 14.4047 10.4002H15.466V9.86692ZM12.5328 10.4002C12.4622 10.4004 12.3945 10.4286 12.3445 10.4786C12.2945 10.5285 12.2664 10.5962 12.2662 10.6669V11.6242L12.1568 11.7335H11.3089L11.1995 11.6242V10.6669C11.1995 10.5962 11.1714 10.5283 11.1214 10.4783C11.0714 10.4283 11.0036 10.4002 10.9329 10.4002C10.8622 10.4002 10.7943 10.4283 10.7443 10.4783C10.6943 10.5283 10.6662 10.5962 10.6662 10.6669V11.7335C10.6668 11.8042 10.6944 11.872 10.7436 11.9228L11.0102 12.1895C11.0611 12.2386 11.1288 12.2663 11.1995 12.2668H12.1568L12.2662 12.3761V13.3334C12.2662 13.4042 12.2943 13.472 12.3443 13.522C12.3943 13.572 12.4621 13.6001 12.5328 13.6001C12.6035 13.6001 12.6714 13.572 12.7214 13.522C12.7714 13.472 12.7995 13.4042 12.7995 13.3334V12.2668C12.7989 12.1961 12.7713 12.1283 12.7221 12.0775L12.6421 12.0002L12.7221 11.9228C12.7713 11.872 12.7989 11.8042 12.7995 11.7335V10.6669C12.7993 10.5962 12.7711 10.5285 12.7211 10.4786C12.6712 10.4286 12.6035 10.4004 12.5328 10.4002Z" fill="white"/>
</svg>
